<?xml version="1.0" ?><!DOCTYPE svg  PUBLIC '-//W3C//DTD SVG 1.1//EN'  'http://www.w3.org/Graphics/SVG/1.1/DTD/svg11.dtd'><svg enable_background="new 0 0 450 451" height="451px" style="stroke-linejoin: round; stroke:#000; fill: none;" version="1.1" viewBox="0 0 450 451" width="450px" xmlns="http://www.w3.org/2000/svg" xmlns:xlink="http://www.w3.org/1999/xlink"><defs><style type="text/css"><![CDATA[path { fill-rule: evenodd; }]]></style></defs><metadata><views>
<view h="1651" padding="0.06" w="950">
<proj id="laea" lat0="0.76" lon0="36.7"/>
<bbox h="136.05" w="104.1" x="957.95" y="931.21"/>
</view></views></metadata>
<g class="" id="context"><path d="M891.163184,1089.167779L906.797521,1080.867949L909.162624,1078.726954L909.489817,1076.558155L908.431582,1074.166914L902.842365,1071.817381L888.970060,1082.244303L886.485673,1090.432913L891.163184,1089.167779Z M663.611333,1449.912307L664.470235,1446.089083L672.057987,1437.983849L683.255010,1440.389004L697.903869,1419.451645L716.987277,1373.100310L719.685368,1368.303908L723.426783,1361.005036L729.204472,1350.383442L731.063736,1344.961424L733.114954,1338.969400L740.628878,1320.882111L746.300575,1291.088840L750.823084,1285.263652L756.096659,1271.972771L763.168260,1258.904335L778.904691,1244.654181L780.641822,1233.657235L789.287656,1211.718957L787.751842,1183.218669L793.329604,1164.617022L800.470841,1156.108647L816.420552,1145.723425L846.570615,1143.415598L868.043698,1122.478328L868.997673,1114.498254L878.914627,1105.044509L882.053984,1094.200508L880.056165,1086.192631L878.181214,1069.968340L881.532965,1072.665437L885.984373,1074.583991L888.400212,1065.450008L891.570987,1059.583127L899.483642,1063.086572L905.527505,1064.101459L925.771874,1058.790681L940.884724,1047.682536L959.417934,1023.241839L960.122465,1011.549789L958.189219,1005.724618L946.378766,988.249107L924.311449,955.647622L907.598159,931.012303L890.474444,905.793080L890.492167,885.634387L890.438629,825.644902L889.952213,705.672893L888.991914,585.693897L887.589899,465.714817L886.745869,405.725230L886.387300,381.194136L888.132158,377.238853L907.501095,355.224118L933.121168,326.098204L966.495484,270.745034L984.580158,240.687612L999.655389,215.614262L981.272870,215.426577L949.173907,217.671848L935.457141,220.104805L928.740214,220.549688L916.420469,220.480175L906.268098,217.713556L899.518148,213.591432L891.031392,204.262781L872.124668,185.348275L858.443602,173.572758L828.943861,187.155615L802.431175,200.668956L764.795706,219.854558L743.390152,233.590333L737.073828,247.430375L720.737079,272.545421L706.037092,288.012058L700.478291,289.875006L666.638266,286.649604L654.385739,283.500666L634.173458,280.692342L607.078296,275.228622L588.813521,269.375629L569.145834,268.701353L540.686342,266.685476L523.143142,262.438232L505.211559,248.500875L482.109871,231.713481L458.324193,214.446443L433.829520,196.665003L404.902032,176.207304L373.294717,153.865793L366.060822,151.606616L362.963724,151.210392L328.957081,150.195500L293.625112,149.131949L269.755740,148.422915L262.186128,145.802270L256.678592,140.720861L249.041493,124.204538L239.546056,112.415105L228.959246,97.414161L227.783432,77.130208L230.352499,55.054558L232.876015,47.741758L231.279030,40.456763L231.490050,30.425990L225.519063,21.111203L190.650475,10.420051L185.060145,11.247260L179.335753,15.251229L172.771998,18.136033L167.996346,15.404158L165.052541,11.421044L164.851840,4.893740L165.338577,0.000000L142.651940,25.685181L117.204535,54.484549L87.749472,87.807437L55.655053,124.086365L30.512546,152.781388L5.668763,181.094074L25.867399,228.223927L32.650396,230.983594L31.756922,235.098766L30.149687,239.067959L43.112170,250.433337L58.989324,256.362796L64.692464,262.187985L65.283968,268.499765L60.282486,296.054708L61.354386,303.909672L66.768537,331.534115L76.225164,337.727717L84.890575,365.518979L101.864432,377.308366L104.316931,380.700595L108.342544,394.179142L113.641336,408.929774L117.724951,412.356758L120.188270,413.218717L125.306132,428.879964L122.525590,437.673339L126.649770,464.401024L133.142710,488.285629L135.052922,516.827586L135.227908,529.395499L135.059507,537.083614L133.719325,547.941510L130.738958,554.218514L125.386575,560.307833L119.489335,569.914499L114.342574,580.209339L111.104576,585.269869L113.728622,600.687799L113.098295,604.719539L111.720539,606.686750L104.081876,609.029330L94.339482,613.151436L88.427794,617.259640L80.076358,625.072873L73.383728,633.532574L64.565360,658.425088L49.757523,677.791336L47.258717,684.172605L33.252975,695.739524L27.096404,709.982682L23.211272,727.444279L17.776426,739.963520L5.966969,757.154017L3.249669,784.312637L3.570703,838.532561L0.344611,900.287671L0.660251,924.547618L10.238716,924.547618L19.291626,929.927905L29.334082,936.295272L56.051020,953.242481L82.771915,970.175789L109.484347,987.123000L136.188471,1004.056311L162.884129,1021.003527L189.559133,1037.950744L216.238158,1054.884061L242.908739,1071.831283L269.558718,1088.778508L296.200520,1105.711832L322.858614,1122.645159L349.483788,1139.592391L376.113028,1156.539627L402.734244,1173.472963L429.347186,1190.420204L455.952199,1207.353547L468.636224,1215.444849L470.522389,1218.948300L472.561096,1234.380169L473.843521,1244.028565L472.966255,1252.509144L465.692505,1266.953936L463.498310,1274.503043L463.369932,1279.744321L465.086074,1281.801905L471.114088,1282.552646L476.211644,1285.972684L478.078649,1288.669788L481.862636,1299.541619L486.796769,1304.991438L497.986317,1314.222765L517.059649,1329.960512L536.127053,1345.698262L555.188601,1361.436017L574.244367,1377.173776L593.294635,1392.897636L612.339066,1408.635403L631.377946,1424.373175L650.411354,1440.110951L659.672038,1447.757399L663.611333,1449.912307Z "/></g></svg>
